<mxfile host="app.diagrams.net" modified="2024-01-12T11:30:06.308Z" agent="Mozilla/5.0 (Windows NT 10.0; Win64; x64) AppleWebKit/537.36 (KHTML, like Gecko) Chrome/120.0.0.0 Safari/537.36 Edg/120.0.0.0" etag="iUDxGJtnYQZH8_9jUXac" version="22.1.18" type="github">
  <diagram name="Page-1" id="0TPB68t9lcZoh8MEriOU">
    <mxGraphModel dx="1303" dy="610" grid="1" gridSize="10" guides="1" tooltips="1" connect="1" arrows="1" fold="1" page="1" pageScale="1" pageWidth="827" pageHeight="1169" math="0" shadow="0">
      <root>
        <mxCell id="0" />
        <mxCell id="1" parent="0" />
        <mxCell id="ryJ9YpFH2XdKHm6aAlPd-1" value="" style="edgeStyle=orthogonalEdgeStyle;rounded=1;jumpStyle=none;jumpSize=3;orthogonalLoop=1;jettySize=auto;html=1;strokeWidth=2;startArrow=none;startFill=0;endArrow=block;endFill=1;startSize=3;endSize=3;" edge="1" parent="1">
          <mxGeometry relative="1" as="geometry">
            <mxPoint x="198" y="319" as="sourcePoint" />
            <mxPoint x="198" y="355" as="targetPoint" />
          </mxGeometry>
        </mxCell>
        <mxCell id="ryJ9YpFH2XdKHm6aAlPd-2" value="" style="edgeStyle=orthogonalEdgeStyle;rounded=1;jumpStyle=none;jumpSize=3;orthogonalLoop=1;jettySize=auto;html=1;strokeWidth=2;startArrow=none;startFill=0;endArrow=block;endFill=1;startSize=3;endSize=3;" edge="1" parent="1">
          <mxGeometry relative="1" as="geometry">
            <mxPoint x="226" y="440" as="sourcePoint" />
            <mxPoint x="226" y="477" as="targetPoint" />
          </mxGeometry>
        </mxCell>
        <mxCell id="ryJ9YpFH2XdKHm6aAlPd-3" style="edgeStyle=orthogonalEdgeStyle;rounded=1;jumpStyle=none;jumpSize=3;orthogonalLoop=1;jettySize=auto;html=1;strokeWidth=5;startArrow=none;startFill=0;endArrow=block;endFill=1;startSize=3;endSize=3;entryX=0;entryY=0.5;entryDx=0;entryDy=0;strokeColor=#CCCCCC;" edge="1" parent="1" target="ryJ9YpFH2XdKHm6aAlPd-22">
          <mxGeometry relative="1" as="geometry">
            <mxPoint x="215" y="277.5" as="sourcePoint" />
            <mxPoint x="516" y="278" as="targetPoint" />
            <Array as="points">
              <mxPoint x="515" y="278" />
            </Array>
          </mxGeometry>
        </mxCell>
        <mxCell id="ryJ9YpFH2XdKHm6aAlPd-4" style="edgeStyle=orthogonalEdgeStyle;rounded=0;jumpStyle=none;jumpSize=3;orthogonalLoop=1;jettySize=auto;html=1;strokeWidth=5;startArrow=none;startFill=0;endArrow=block;endFill=1;startSize=3;endSize=3;entryX=0;entryY=0.5;entryDx=0;entryDy=0;exitX=1;exitY=0.5;exitDx=0;exitDy=0;strokeColor=#CCCCCC;" edge="1" parent="1" source="ryJ9YpFH2XdKHm6aAlPd-28" target="ryJ9YpFH2XdKHm6aAlPd-20">
          <mxGeometry relative="1" as="geometry">
            <mxPoint x="275" y="397.5" as="sourcePoint" />
            <mxPoint x="496" y="398" as="targetPoint" />
            <Array as="points">
              <mxPoint x="415" y="398" />
            </Array>
          </mxGeometry>
        </mxCell>
        <mxCell id="ryJ9YpFH2XdKHm6aAlPd-5" style="edgeStyle=orthogonalEdgeStyle;rounded=1;jumpStyle=none;jumpSize=3;orthogonalLoop=1;jettySize=auto;html=1;strokeWidth=5;startArrow=none;startFill=0;endArrow=block;endFill=1;startSize=3;endSize=3;entryX=0;entryY=0.5;entryDx=0;entryDy=0;exitX=0.5;exitY=1;exitDx=0;exitDy=0;strokeColor=#CCCCCC;" edge="1" parent="1" source="ryJ9YpFH2XdKHm6aAlPd-15" target="ryJ9YpFH2XdKHm6aAlPd-23">
          <mxGeometry relative="1" as="geometry">
            <mxPoint x="176" y="158" as="sourcePoint" />
            <mxPoint x="482" y="157.6" as="targetPoint" />
            <Array as="points">
              <mxPoint x="401" y="158" />
              <mxPoint x="401" y="157" />
            </Array>
          </mxGeometry>
        </mxCell>
        <mxCell id="ryJ9YpFH2XdKHm6aAlPd-6" value="" style="edgeStyle=orthogonalEdgeStyle;rounded=1;jumpStyle=none;jumpSize=3;orthogonalLoop=1;jettySize=auto;html=1;strokeWidth=2;startArrow=none;startFill=0;endArrow=block;endFill=1;startSize=3;endSize=3;" edge="1" parent="1">
          <mxGeometry relative="1" as="geometry">
            <mxPoint x="174" y="201" as="sourcePoint" />
            <mxPoint x="174" y="237" as="targetPoint" />
          </mxGeometry>
        </mxCell>
        <mxCell id="ryJ9YpFH2XdKHm6aAlPd-7" value="" style="group" vertex="1" connectable="0" parent="1">
          <mxGeometry x="126" y="28" width="90" height="80" as="geometry" />
        </mxCell>
        <mxCell id="ryJ9YpFH2XdKHm6aAlPd-8" value="PET" style="shape=cube;whiteSpace=wrap;html=1;boundedLbl=1;backgroundOutline=1;darkOpacity=0.05;darkOpacity2=0.1;" vertex="1" parent="ryJ9YpFH2XdKHm6aAlPd-7">
          <mxGeometry y="31.515151515151516" width="80" height="48.484848484848484" as="geometry" />
        </mxCell>
        <mxCell id="ryJ9YpFH2XdKHm6aAlPd-9" value="CT" style="shape=cube;whiteSpace=wrap;html=1;boundedLbl=1;backgroundOutline=1;darkOpacity=0.05;darkOpacity2=0.1;" vertex="1" parent="ryJ9YpFH2XdKHm6aAlPd-7">
          <mxGeometry width="80" height="48.484848484848484" as="geometry" />
        </mxCell>
        <mxCell id="ryJ9YpFH2XdKHm6aAlPd-10" value="&lt;font style=&quot;font-size: 12px;&quot;&gt;A&lt;/font&gt;" style="text;html=1;strokeColor=none;fillColor=none;align=center;verticalAlign=middle;whiteSpace=wrap;rounded=0;fontSize=10;strokeWidth=1;" vertex="1" parent="ryJ9YpFH2XdKHm6aAlPd-7">
          <mxGeometry x="-5" y="14.240000000000009" width="30" height="20" as="geometry" />
        </mxCell>
        <mxCell id="ryJ9YpFH2XdKHm6aAlPd-11" value="&lt;font style=&quot;font-size: 12px;&quot;&gt;S&lt;/font&gt;" style="text;html=1;strokeColor=none;fillColor=none;align=center;verticalAlign=middle;whiteSpace=wrap;rounded=0;fontSize=10;strokeWidth=1;" vertex="1" parent="ryJ9YpFH2XdKHm6aAlPd-7">
          <mxGeometry x="60" y="33" width="30" height="20" as="geometry" />
        </mxCell>
        <mxCell id="ryJ9YpFH2XdKHm6aAlPd-12" value="&lt;font style=&quot;font-size: 12px;&quot;&gt;C&lt;/font&gt;" style="text;html=1;strokeColor=none;fillColor=none;align=center;verticalAlign=middle;whiteSpace=wrap;rounded=0;fontSize=10;strokeWidth=1;" vertex="1" parent="ryJ9YpFH2XdKHm6aAlPd-7">
          <mxGeometry x="24" y="-3" width="30" height="20" as="geometry" />
        </mxCell>
        <mxCell id="ryJ9YpFH2XdKHm6aAlPd-13" value="Dosemap" style="shape=cube;whiteSpace=wrap;html=1;boundedLbl=1;backgroundOutline=1;darkOpacity=0.05;darkOpacity2=0.1;" vertex="1" parent="1">
          <mxGeometry x="521" y="48" width="80" height="60" as="geometry" />
        </mxCell>
        <mxCell id="ryJ9YpFH2XdKHm6aAlPd-14" value="" style="group" vertex="1" connectable="0" parent="1">
          <mxGeometry x="99" y="118" width="89" height="80" as="geometry" />
        </mxCell>
        <mxCell id="ryJ9YpFH2XdKHm6aAlPd-15" value="" style="rounded=1;whiteSpace=wrap;html=1;rotation=-90;container=0;fillColor=#cdeb8b;strokeColor=#36393d;" vertex="1" parent="ryJ9YpFH2XdKHm6aAlPd-14">
          <mxGeometry x="34" y="25" width="80" height="30" as="geometry" />
        </mxCell>
        <mxCell id="ryJ9YpFH2XdKHm6aAlPd-16" value="&lt;font style=&quot;font-size: 12px;&quot;&gt;64&lt;/font&gt;" style="text;html=1;strokeColor=none;fillColor=none;align=center;verticalAlign=middle;whiteSpace=wrap;rounded=0;fontSize=10;strokeWidth=1;" vertex="1" parent="ryJ9YpFH2XdKHm6aAlPd-14">
          <mxGeometry x="59" y="30" width="30" height="20" as="geometry" />
        </mxCell>
        <mxCell id="ryJ9YpFH2XdKHm6aAlPd-17" value="" style="edgeStyle=orthogonalEdgeStyle;rounded=0;orthogonalLoop=1;jettySize=auto;html=1;strokeWidth=2;endArrow=blockThin;endFill=1;" edge="1" parent="1" source="ryJ9YpFH2XdKHm6aAlPd-18" target="ryJ9YpFH2XdKHm6aAlPd-20">
          <mxGeometry relative="1" as="geometry" />
        </mxCell>
        <mxCell id="ryJ9YpFH2XdKHm6aAlPd-18" value="Decoder&lt;br&gt;block" style="rounded=1;whiteSpace=wrap;html=1;rotation=0;container=0;fillColor=#cce5ff;strokeColor=#36393d;" vertex="1" parent="1">
          <mxGeometry x="526" y="479.25" width="77.5" height="77.5" as="geometry" />
        </mxCell>
        <mxCell id="ryJ9YpFH2XdKHm6aAlPd-19" value="" style="edgeStyle=orthogonalEdgeStyle;rounded=0;orthogonalLoop=1;jettySize=auto;html=1;strokeWidth=2;endArrow=blockThin;endFill=1;" edge="1" parent="1" source="ryJ9YpFH2XdKHm6aAlPd-20" target="ryJ9YpFH2XdKHm6aAlPd-22">
          <mxGeometry relative="1" as="geometry" />
        </mxCell>
        <mxCell id="ryJ9YpFH2XdKHm6aAlPd-20" value="Decoder&lt;br&gt;block" style="rounded=1;whiteSpace=wrap;html=1;rotation=0;container=0;fillColor=#cce5ff;strokeColor=#36393d;" vertex="1" parent="1">
          <mxGeometry x="526" y="359" width="77.5" height="77.5" as="geometry" />
        </mxCell>
        <mxCell id="ryJ9YpFH2XdKHm6aAlPd-21" value="" style="edgeStyle=orthogonalEdgeStyle;rounded=0;orthogonalLoop=1;jettySize=auto;html=1;strokeWidth=2;endArrow=blockThin;endFill=1;" edge="1" parent="1" source="ryJ9YpFH2XdKHm6aAlPd-22" target="ryJ9YpFH2XdKHm6aAlPd-23">
          <mxGeometry relative="1" as="geometry" />
        </mxCell>
        <mxCell id="ryJ9YpFH2XdKHm6aAlPd-22" value="Decoder&lt;br&gt;block" style="rounded=1;whiteSpace=wrap;html=1;rotation=0;container=0;fillColor=#cce5ff;strokeColor=#36393d;" vertex="1" parent="1">
          <mxGeometry x="526" y="238" width="77.5" height="77.5" as="geometry" />
        </mxCell>
        <mxCell id="ryJ9YpFH2XdKHm6aAlPd-23" value="Decoder&lt;br&gt;block" style="rounded=1;whiteSpace=wrap;html=1;rotation=0;container=0;fillColor=#cce5ff;strokeColor=#36393d;" vertex="1" parent="1">
          <mxGeometry x="526" y="119" width="77.5" height="77.5" as="geometry" />
        </mxCell>
        <mxCell id="ryJ9YpFH2XdKHm6aAlPd-24" style="edgeStyle=orthogonalEdgeStyle;rounded=0;orthogonalLoop=1;jettySize=auto;html=1;entryX=0.5;entryY=1;entryDx=0;entryDy=0;strokeWidth=2;endArrow=blockThin;endFill=1;" edge="1" parent="1" source="ryJ9YpFH2XdKHm6aAlPd-25" target="ryJ9YpFH2XdKHm6aAlPd-18">
          <mxGeometry relative="1" as="geometry" />
        </mxCell>
        <mxCell id="ryJ9YpFH2XdKHm6aAlPd-25" value="Decoder&lt;br&gt;block" style="rounded=1;whiteSpace=wrap;html=1;rotation=0;container=0;fillColor=#cce5ff;strokeColor=#36393d;" vertex="1" parent="1">
          <mxGeometry x="443.5" y="558" width="77.5" height="77.5" as="geometry" />
        </mxCell>
        <mxCell id="ryJ9YpFH2XdKHm6aAlPd-26" value="ResNet&lt;br&gt;block" style="rounded=1;whiteSpace=wrap;html=1;rotation=0;container=0;fillColor=#cdeb8b;strokeColor=#36393d;" vertex="1" parent="1">
          <mxGeometry x="133.5" y="236.5" width="80" height="83" as="geometry" />
        </mxCell>
        <mxCell id="ryJ9YpFH2XdKHm6aAlPd-27" value="&lt;font style=&quot;font-size: 12px;&quot;&gt;128&lt;/font&gt;" style="text;html=1;strokeColor=none;fillColor=none;align=center;verticalAlign=middle;whiteSpace=wrap;rounded=0;fontSize=10;strokeWidth=1;" vertex="1" parent="1">
          <mxGeometry x="155" y="240" width="30" height="20" as="geometry" />
        </mxCell>
        <mxCell id="ryJ9YpFH2XdKHm6aAlPd-28" value="ResNet&lt;br&gt;block" style="rounded=1;whiteSpace=wrap;html=1;rotation=0;container=0;fillColor=#cdeb8b;strokeColor=#36393d;" vertex="1" parent="1">
          <mxGeometry x="160" y="356.25" width="80" height="83" as="geometry" />
        </mxCell>
        <mxCell id="ryJ9YpFH2XdKHm6aAlPd-29" style="edgeStyle=orthogonalEdgeStyle;rounded=0;orthogonalLoop=1;jettySize=auto;html=1;entryX=0;entryY=0.5;entryDx=0;entryDy=0;exitX=0.5;exitY=1;exitDx=0;exitDy=0;strokeWidth=2;endArrow=blockThin;endFill=1;" edge="1" parent="1" source="ryJ9YpFH2XdKHm6aAlPd-30" target="ryJ9YpFH2XdKHm6aAlPd-32">
          <mxGeometry relative="1" as="geometry" />
        </mxCell>
        <mxCell id="ryJ9YpFH2XdKHm6aAlPd-30" value="ResNet&lt;br&gt;block" style="rounded=1;whiteSpace=wrap;html=1;rotation=0;container=0;fillColor=#cdeb8b;strokeColor=#36393d;" vertex="1" parent="1">
          <mxGeometry x="213.5" y="477" width="80" height="83" as="geometry" />
        </mxCell>
        <mxCell id="ryJ9YpFH2XdKHm6aAlPd-31" value="" style="edgeStyle=orthogonalEdgeStyle;rounded=0;orthogonalLoop=1;jettySize=auto;html=1;strokeWidth=2;endArrow=blockThin;endFill=1;" edge="1" parent="1" source="ryJ9YpFH2XdKHm6aAlPd-32" target="ryJ9YpFH2XdKHm6aAlPd-25">
          <mxGeometry relative="1" as="geometry" />
        </mxCell>
        <mxCell id="ryJ9YpFH2XdKHm6aAlPd-32" value="ResNet&lt;br&gt;block" style="rounded=1;whiteSpace=wrap;html=1;rotation=0;container=0;fillColor=#cdeb8b;strokeColor=#36393d;" vertex="1" parent="1">
          <mxGeometry x="305" y="555.5" width="80" height="83" as="geometry" />
        </mxCell>
        <mxCell id="ryJ9YpFH2XdKHm6aAlPd-33" value="&lt;font style=&quot;font-size: 12px;&quot;&gt;256&lt;/font&gt;" style="text;html=1;strokeColor=none;fillColor=none;align=center;verticalAlign=middle;whiteSpace=wrap;rounded=0;fontSize=10;strokeWidth=1;" vertex="1" parent="1">
          <mxGeometry x="183.5" y="360" width="30" height="20" as="geometry" />
        </mxCell>
        <mxCell id="ryJ9YpFH2XdKHm6aAlPd-34" value="&lt;font style=&quot;font-size: 12px;&quot;&gt;512&lt;/font&gt;" style="text;html=1;strokeColor=none;fillColor=none;align=center;verticalAlign=middle;whiteSpace=wrap;rounded=0;fontSize=10;strokeWidth=1;" vertex="1" parent="1">
          <mxGeometry x="238.5" y="481.25" width="30" height="20" as="geometry" />
        </mxCell>
        <mxCell id="ryJ9YpFH2XdKHm6aAlPd-35" value="&lt;font style=&quot;font-size: 12px;&quot;&gt;1024&lt;/font&gt;" style="text;html=1;strokeColor=none;fillColor=none;align=center;verticalAlign=middle;whiteSpace=wrap;rounded=0;fontSize=10;strokeWidth=1;" vertex="1" parent="1">
          <mxGeometry x="330" y="558" width="30" height="20" as="geometry" />
        </mxCell>
        <mxCell id="ryJ9YpFH2XdKHm6aAlPd-36" style="edgeStyle=orthogonalEdgeStyle;rounded=0;jumpStyle=none;jumpSize=3;orthogonalLoop=1;jettySize=auto;html=1;strokeWidth=5;startArrow=none;startFill=0;endArrow=block;endFill=1;startSize=3;endSize=3;exitX=1;exitY=0.5;exitDx=0;exitDy=0;strokeColor=#CCCCCC;" edge="1" parent="1">
          <mxGeometry relative="1" as="geometry">
            <mxPoint x="295" y="517.5" as="sourcePoint" />
            <mxPoint x="525" y="518" as="targetPoint" />
            <Array as="points">
              <mxPoint x="470" y="517.5" />
            </Array>
          </mxGeometry>
        </mxCell>
      </root>
    </mxGraphModel>
  </diagram>
</mxfile>
